# xmcd CD database file
#
# Track frame offsets:
#	150
#	27827
#	51725
#	70160
#	102257
#	133191
#	147657
#	169845
#	184927
#	212906
#	230450
#	260778
#
# Disc length: 3691 seconds
#
# Revision: 3
# Processed by: cddbd v1.5.1PL0 Copyright (c) Steve Scherf et al.
# Submitted via: CDex 1.40Release
#
DISCID=c30e690c
DTITLE=Dirty Vegas - Dirty Vegas
DYEAR=2002
DGENRE=House
TTITLE0=I Should Know
TTITLE1=Ghosts
TTITLE2=Lost Not Found
TTITLE3=Days Go By
TTITLE4=Throwing Shapes
TTITLE5=Candles
TTITLE6=All Or Nothing
TTITLE7=Alive
TTITLE8=7AM
TTITLE9=The Brazilian
TTITLE10=Simple Things Part 2
TTITLE11=Days Go By (acoustic)
EXTD=YEAR: 2002 ID3G: 35
EXTT0=
EXTT1=
EXTT2=
EXTT3=
EXTT4=
EXTT5=
EXTT6=
EXTT7=
EXTT8=
EXTT9=
EXTT10=
EXTT11=
PLAYORDER=
